Coordinates
version=1
nRows=4
nColumns=63
inDegrees=yes

Units are S.I. units (second, meters, Newtons, ...)
If the header above contains a line with 'inDegrees', this indicates whether rotational values are in degrees (yes) or radians (no).

endheader
time	pelvis_tilt	pelvis_list	pelvis_rotation	pelvis_tx	pelvis_ty	pelvis_tz	hip_flexion_r	hip_adduction_r	hip_rotation_r	knee_angle_r	knee_angle_r_beta	ankle_angle_r	subtalar_angle_r	mtp_angle_r	hip_flexion_l	hip_adduction_l	hip_rotation_l	knee_angle_l	knee_angle_l_beta	ankle_angle_l	subtalar_angle_l	mtp_angle_l	L5_S1_Flex_Ext	L5_S1_Lat_Bending	L5_S1_axial_rotation	L4_L5_Flex_Ext	L4_L5_Lat_Bending	L4_L5_axial_rotation	L3_L4_Flex_Ext	L3_L4_Lat_Bending	L3_L4_axial_rotation	L2_L3_Flex_Ext	L2_L3_Lat_Bending	L2_L3_axial_rotation	L1_L2_Flex_Ext	L1_L2_Lat_Bending	L1_L2_axial_rotation	L1_T12_Flex_Ext	L1_T12_Lat_Bending	L1_T12_axial_rotation	Abs_r3	Abs_r2	Abs_r1	Abs_t1	Abs_t2	neck_flexion	neck_bending	neck_rotation	arm_flex_r	arm_add_r	arm_rot_r	elbow_flex_r	pro_sup_r	wrist_flex_r	wrist_dev_r	arm_flex_l	arm_add_l	arm_rot_l	elbow_flex_l	pro_sup_l	wrist_flex_l	wrist_dev_l
      2.55000000	      3.90072900	      0.62270121	    106.55164815	     -0.16683064	      0.75076885	      0.71489929	      5.75952209	     -2.87485473	    -21.37014543	     18.23721985	      0.31829953	     33.53742409	      5.04441986	      0.00000000	      3.77806765	      0.54808512	      3.39519176	      8.79116742	      0.15343482	     28.80640012	     14.03841274	      0.00000000	     -0.04055699	      1.78429392	      0.03500420	     -0.07531839	      2.37311091	      0.03719196	     -0.06663108	      4.33833223	      0.03719196	     -0.04635258	      4.33833223	      0.03062868	     -0.03766122	      3.63853216	      0.02844091	     -0.02317426	      2.76387128	      0.02625315	     -0.28969453	     20.18428966	      0.19468287	      0.00000000	      0.00000000	      4.57268139	     -6.06760627	     -4.95608669	    -66.40225593	    -74.94471562	    -27.41552994	     12.04556993	     12.88632750	     -9.47019138	      4.88010751	     30.46431899	    -64.56390399	     48.95650988	      2.83520335	     72.98903758	    -15.37570205	      4.02404923
      2.57500000	      3.80993098	      0.67612969	    106.84998474	     -0.16689567	      0.75079991	      0.71539635	      5.66027582	     -2.98629110	    -21.68699837	     18.19002331	      0.31747580	     33.52212796	      5.07744484	      0.00000000	      3.75836567	      0.64325330	      4.09941323	      8.83903155	      0.15427020	     28.61784500	     13.89938307	      0.00000000	     -0.03906355	      1.78404134	      0.10242859	     -0.07254492	      2.37277499	      0.10883038	     -0.06417751	      4.33771812	      0.10883038	     -0.04464573	      4.33771812	      0.08962502	     -0.03627441	      3.63801711	      0.08322323	     -0.02232091	      2.76348004	      0.07682144	     -0.27902703	     20.18143247	      0.56967709	      0.00000000	      0.00000000	      4.40573501	     -5.80532446	     -5.57589569	    -66.44462666	    -73.98756938	    -27.41879716	     11.97178681	     12.30848541	     -9.74943400	      4.15699879	     33.04866566	    -64.03992575	     51.05111341	      2.30713355	     77.53604991	    -16.54939515	      3.82130074
      2.60000000	      3.85575556	      0.62045429	    106.84415362	     -0.16686635	      0.75052135	      0.71611050	      5.74045597	     -2.96357389	    -21.60064869	     18.10914520	      0.31606421	     33.58348249	      5.17152660	      0.00000000	      3.88730945	      0.62740875	      4.22044049	      8.94530465	      0.15612502	     28.29535052	     13.95596739	      0.00000000	     -0.03946116	      1.79733729	      0.08905470	     -0.07328333	      2.39045860	      0.09462062	     -0.06483074	      4.37004590	      0.09462062	     -0.04510016	      4.37004590	      0.07792286	     -0.03664364	      3.66513021	      0.07235694	     -0.02254811	      2.78407547	      0.06679102	     -0.28186714	     20.33183894	      0.49529552	      0.00000000	      0.00000000	      4.35258667	     -5.84149467	     -5.52608784	    -66.41301600	    -73.91885440	    -27.37239290	     12.08020643	     12.34550998	     -9.75720291	      3.99086198	     33.30200406	    -63.98147857	     51.02302751	      2.28718907	     77.58096672	    -16.63015509	      3.79139867
      2.62500000	      3.92780744	      0.33009417	    107.22673258	     -0.16687207	      0.74970756	      0.71710911	      5.94200777	     -2.96563860	    -22.08024286	     17.85623300	      0.31165006	     33.59504483	      5.25444039	      0.00000000	      4.45846290	      0.68308795	      4.85354476	      9.37858180	      0.16368713	     28.16159137	     13.74244161	      0.00000000	      0.00579048	      1.78155694	      0.05294051	      0.01075350	      2.36947073	      0.05624929	      0.00951318	      4.33167754	      0.05624929	      0.00661794	      4.33167754	      0.04632295	      0.00537704	      3.63295091	      0.04301417	      0.00330868	      2.75963170	      0.03970538	      0.04136081	     20.15332841	      0.29443924	      0.00000000	      0.00000000	      4.33918059	     -5.53867170	     -6.33146710	    -66.35827529	    -73.01598516	    -26.98833211	     12.35050053	     12.80287689	     -9.78406760	      2.14205257	     34.20998275	    -63.52250499	     49.54695303	      1.83154005	     76.69531717	    -16.69930427	      4.12067244
